<mxfile host="www.draw.io" modified="2020-01-23T16:40:26.861Z" agent="Mozilla/5.0 (Windows NT 10.0; Win64; x64) AppleWebKit/537.36 (KHTML, like Gecko) Chrome/79.0.3945.130 Safari/537.36" etag="kSSEeHZ41WkRxKy2Y0-C" version="12.5.6" type="github">
  <diagram id="S6xj362sScFlRW0MPtzr" name="Page-1">
    <mxGraphModel dx="1632" dy="420" grid="1" gridSize="10" guides="1" tooltips="1" connect="1" arrows="1" fold="1" page="1" pageScale="1" pageWidth="850" pageHeight="1100" math="0" shadow="0">
      <root>
        <mxCell id="0"/>
        <mxCell id="1" parent="0"/>
        <mxCell id="KzRZlqO3SLwy7wh2SU5o-11" value="Project and Task Sync we use Task Sync&amp;nbsp;" style="text;html=1;align=center;verticalAlign=middle;resizable=0;points=[];autosize=1;strokeColor=#FF9940;" parent="1" vertex="1">
          <mxGeometry x="-770" y="40" width="240" height="20" as="geometry"/>
        </mxCell>
        <mxCell id="KzRZlqO3SLwy7wh2SU5o-16" value="" style="edgeStyle=orthogonalEdgeStyle;rounded=0;orthogonalLoop=1;jettySize=auto;html=1;" parent="1" source="KzRZlqO3SLwy7wh2SU5o-17" edge="1">
          <mxGeometry relative="1" as="geometry">
            <mxPoint x="-570" y="135" as="targetPoint"/>
          </mxGeometry>
        </mxCell>
        <mxCell id="KzRZlqO3SLwy7wh2SU5o-17" value="&lt;div&gt;PROJECT_NUMBER&lt;/div&gt;&lt;div&gt;Project_SYNC_FLAG&lt;/div&gt;&lt;div&gt;SYSTEM_ID&lt;/div&gt;&lt;div&gt;DESCRIPTION&lt;/div&gt;&lt;div&gt;SYNC_FLAG&lt;/div&gt;&lt;div&gt;RECORD_NUMBER&lt;/div&gt;" style="text;html=1;align=center;verticalAlign=middle;resizable=0;points=[];autosize=1;" parent="1" vertex="1">
          <mxGeometry x="-780" y="90" width="130" height="90" as="geometry"/>
        </mxCell>
        <mxCell id="KzRZlqO3SLwy7wh2SU5o-18" value="Task Sync&amp;nbsp;" style="rounded=0;whiteSpace=wrap;html=1;" parent="1" vertex="1">
          <mxGeometry x="-570" y="105" width="120" height="60" as="geometry"/>
        </mxCell>
      </root>
    </mxGraphModel>
  </diagram>
</mxfile>
